<svg width="30" height="30" fill="none" xmlns="http://www.w3.org/2000/svg"><path d="M12.853 9.99a2.24 2.24 0 104.478 0 2.24 2.24 0 00-4.478 0z" fill="#CACACA"/><path fill-rule="evenodd" clip-rule="evenodd" d="M15 30c8.284 0 15-6.716 15-15 0-8.284-6.716-15-15-15C6.716 0 0 6.716 0 15c0 8.284 6.716 15 15 15zM9.675 9.99a5.417 5.417 0 1110.834 0 5.417 5.417 0 01-10.834 0zm10.866 8.204c-.069.055-1.368 1.082-3.537 1.524l3.274 3.244a1.473 1.473 0 11-2.082 2.085l-3.178-3.095-2.886 3.075c-.29.3-.675.45-1.06.45a1.473 1.473 0 01-1.06-2.495l3.107-3.247c-2.23-.431-3.583-1.485-3.653-1.541a1.473 1.473 0 011.843-2.298c.014.01 1.429 1.074 3.71 1.075 2.28-.001 3.666-1.064 3.68-1.075a1.473 1.473 0 011.842 2.298z" fill="#CACACA"/></svg>